<?xml version="1.0" encoding="UTF-8" standalone="no"?>
<!DOCTYPE svg PUBLIC "-//W3C//DTD SVG 1.1//EN" "http://www.w3.org/Graphics/SVG/1.1/DTD/svg11.dtd">
<svg width="100%" height="100%" viewBox="0 0 197 148" version="1.1" xmlns="http://www.w3.org/2000/svg" xmlns:xlink="http://www.w3.org/1999/xlink" xml:space="preserve" xmlns:serif="http://www.serif.com/" style="fill-rule:evenodd;clip-rule:evenodd;stroke-linejoin:round;stroke-miterlimit:2;">
    <g transform="matrix(1,0,0,1,-1.94492,-26.0485)">
        <g transform="matrix(0.233124,0,0,0.233124,6.78501,6.86595)">
            <g transform="matrix(2.56268,0,0,2.56268,-484.76,-853.656)">
                <path d="M310.555,369.512C317.396,368.615 323.678,373.44 324.575,380.28C325.472,387.12 320.647,393.402 313.806,394.299C300.252,396.077 257.492,419.21 233.303,459.551C197.206,519.753 214.643,564.203 215.07,566.552C216.305,573.339 211.797,579.853 205.01,581.088C198.223,582.323 191.709,577.815 190.474,571.028C189.977,568.298 169.907,516.667 211.862,446.695C241.108,397.921 294.167,371.661 310.555,369.512Z" style="fill:rgb(216,255,247);stroke:rgb(23,213,190);stroke-width:8.37px;"/>
            </g>
            <g transform="matrix(1.0486,0,0,1.0486,-19.4346,-19.4178)">
                <path d="M113.104,690.319C112.611,690.169 112.119,690.005 111.629,689.827C95.774,684.093 87.557,666.565 93.292,650.71C188.32,387.96 193.635,390.874 290.004,127.808C295.804,111.977 313.366,103.832 329.197,109.632C345.028,115.431 353.173,132.993 347.373,148.824C321.259,220.112 301.833,271.859 285.496,314.654C274.333,343.896 264.612,368.959 255.185,393.221C230.548,456.627 207.915,514.561 166.783,627.329C152.941,629.46 138.167,630.646 122.402,630.698C105.541,630.753 91.898,644.487 91.954,661.347C91.999,674.893 100.873,686.363 113.104,690.319Z" style="fill:rgb(216,255,247);stroke:rgb(23,213,190);stroke-width:20.45px;"/>
            </g>
            <g transform="matrix(1.0486,0,0,1.0486,-19.4346,-19.4178)">
                <path d="M285.496,314.654C317.462,306.985 345.24,310.031 367.651,319.854C367.636,319.881 367.621,319.909 367.606,319.936C378.051,324.703 387.299,330.955 395.228,338.279C432.684,372.879 445.073,436.629 413.964,500.946C391.559,547.269 319.858,691.144 122.603,691.795C119.289,691.806 116.096,691.287 113.104,690.319C100.873,686.363 91.999,674.893 91.954,661.347C91.898,644.487 105.541,630.753 122.402,630.698C138.167,630.646 152.941,629.46 166.783,627.329C293.946,607.752 342.513,508.353 358.963,474.342C376.315,438.468 374.662,402.457 353.77,383.158C349.38,379.103 344.342,375.987 338.703,373.853C338.698,373.862 338.694,373.87 338.689,373.879C317.932,366.81 289.38,372.596 255.185,393.221C264.612,368.959 274.333,343.896 285.496,314.654Z" style="fill:rgb(216,255,247);stroke:rgb(23,213,190);stroke-width:20.45px;"/>
            </g>
            <g transform="matrix(2.56268,0,0,2.56268,-540.419,-857.264)">
                <path d="M394.666,550.712C396.346,558.286 399.253,564.97 404.019,570.412C415.487,583.507 431.142,585.976 446.206,580.559C472.675,571.042 496.906,539.739 501.941,497.158C502.751,490.306 508.971,485.402 515.823,486.212C522.674,487.022 527.578,493.242 526.768,500.094C520.416,553.811 488.056,592.079 454.665,604.085C429.824,613.017 404.123,608.476 385.212,586.883C375.602,575.91 370.123,561.555 368.432,545.287C368.406,545.079 368.385,544.871 368.369,544.663C368.212,543.056 368.092,541.432 368.008,539.79C366.724,514.664 374.016,485.337 386.868,458.763C399.733,432.162 418.134,408.399 438.353,394.089C453.377,383.456 469.496,377.927 485.357,379.054C507.985,380.663 525.82,396.668 524.373,422.844C523.659,435.76 517.681,451.932 502.878,470.206C484.13,493.35 450.496,520.996 394.666,550.712ZM393.444,522.796C457.634,487.207 487.594,456.326 496.77,432.695C500.254,423.723 500.384,416.423 497.199,411.249C494.422,406.736 489.285,404.397 483.585,403.991C473.129,403.248 462.699,407.486 452.796,414.495C435.627,426.646 420.299,447.059 409.375,469.647C401.031,486.9 395.237,505.467 393.444,522.796Z" style="fill:rgb(216,255,247);stroke:rgb(23,213,190);stroke-width:8.37px;"/>
            </g>
            <g transform="matrix(1.0486,0,0,1.0486,-19.4346,-19.4178)">
                <path d="M464.377,478.847C419.638,502.314 444.241,555.327 467.738,546.808" style="fill:none;stroke:rgb(23,213,190);stroke-width:21.45px;stroke-linecap:round;stroke-miterlimit:1.5;"/>
            </g>
        </g>
    </g>
</svg>
